<svg width="435" height="200" viewBox="0 0 435 200" fill="none" xmlns="http://www.w3.org/2000/svg">
<rect width="434.024" height="200" rx="22.5317" fill="{{ACCENT}}"/>
<path d="M411.492 43.3949V157.015C411.492 175.04 411.289 175.85 409.054 175.85H381.424C379.19 175.85 378.783 175.04 378.783 157.015V43.3949C378.783 25.3697 379.19 24.5596 381.424 24.5596H409.054C411.289 24.5596 411.492 25.3697 411.492 43.3949Z" fill="{{DETAIL}}"/>
<path d="M334.023 109.823V105.57C334.023 95.443 329.35 91.3924 321.224 91.3924C313.3 91.3924 309.034 95.6455 307.815 103.139C307.408 105.367 307.612 107.19 306.393 107.19H278.966C277.34 107.19 277.34 106.785 277.34 105.367C277.34 94.6329 287.499 72.3545 322.849 72.3545C347.838 72.3545 365.716 82.2785 365.716 109.823V150.329C365.716 159.645 370.795 172.81 370.795 174.632C370.795 175.443 370.186 175.848 369.576 175.848H339.102C337.68 175.848 337.477 175.038 336.461 169.974L335.648 166.126C335.039 163.088 334.632 162.076 333.413 162.076C331.788 162.076 330.772 165.721 326.303 169.974C321.427 174.43 315.535 177.468 305.377 177.468C288.921 177.468 274.09 168.151 274.09 147.898C274.09 125.215 291.765 115.494 317.973 114.481C331.585 113.873 334.023 115.291 334.023 109.823ZM334.023 139.19V135.139C334.023 131.088 333.007 129.873 329.553 130.076L322.036 130.481C312.488 131.088 306.799 135.949 306.799 145.063C306.799 153.974 311.675 158.43 318.786 158.43C326.709 158.43 334.023 151.139 334.023 139.19Z" fill="{{DETAIL}}"/>
<path d="M218.798 98.8853C218.798 95.0372 217.172 94.6322 209.655 94.6322H205.998C204.576 94.6322 204.373 93.6195 204.373 85.3158V83.898C204.373 75.5943 204.576 74.7842 205.998 74.7842H210.265C217.782 74.7842 218.798 74.1766 218.798 70.531V57.9741C218.798 34.278 230.784 22.5312 253.945 22.5312C263.087 22.5312 269.385 23.949 270.401 24.5566C270.807 24.9616 270.807 25.5692 270.807 33.0628V35.6957C270.807 43.3919 270.807 45.2147 270.198 45.2147C269.588 45.2147 266.744 43.3919 261.868 43.3919C255.367 43.3919 251.304 46.6324 251.304 57.9741V70.531C251.304 74.1766 252.726 74.7842 261.868 74.7842H271.01C272.839 74.7842 272.839 75.5943 272.839 83.898V85.3158C272.839 93.6195 272.636 94.6322 271.214 94.6322H261.868C252.726 94.6322 251.304 95.0372 251.304 98.8853V157.012C251.304 175.037 250.694 175.847 249.069 175.847H220.829C219.204 175.847 218.798 175.037 218.798 157.012V98.8853Z" fill="{{DETAIL}}"/>
<path d="M120.281 24.9209C122.907 24.9209 125.013 27.0474 125.264 29.6504C127.503 52.8691 146.06 71.3473 169.377 73.5771C171.991 73.8273 174.126 75.9225 174.126 78.5371V122.258C174.126 124.873 171.991 126.969 169.377 127.219C146.06 129.449 127.503 147.927 125.264 171.146C125.013 173.748 122.907 175.875 120.281 175.875H76.376C73.7499 175.875 71.6447 173.748 71.3936 171.146C69.1542 147.927 50.5976 129.449 27.2803 127.219C24.6664 126.969 22.5312 124.873 22.5312 122.258V78.5371C22.5315 75.9225 24.6666 73.8273 27.2803 73.5771C50.5975 71.3473 69.1542 52.8691 71.3936 29.6504C71.6446 27.0474 73.7499 24.9209 76.376 24.9209H120.281ZM98.5869 54.793C73.3927 54.7932 52.969 75.1537 52.9688 100.27C52.9688 125.386 73.3925 145.747 98.5869 145.747C123.781 145.747 144.206 125.386 144.206 100.27C144.206 75.1536 123.781 54.793 98.5869 54.793Z" fill="{{DETAIL}}"/>
</svg>
