<svg width="201" height="200" viewBox="0 0 201 200" fill="none" xmlns="http://www.w3.org/2000/svg">
<rect width="200.848" height="199.999" rx="27.4784" fill="{{ACCENT}}"/>
<path d="M124.535 17.1738C127.419 17.1738 129.731 19.5068 130.007 22.3633C132.466 47.8428 152.848 68.1194 178.458 70.5664C181.329 70.8409 183.674 73.1412 183.674 76.0107V123.988C183.674 126.858 181.329 129.157 178.458 129.432C152.848 131.879 132.466 152.156 130.007 177.636C129.731 180.492 127.419 182.825 124.535 182.825H76.3125C73.4284 182.825 71.1167 180.492 70.8408 177.636C68.3813 152.156 48.0005 131.879 22.3906 129.432C19.5196 129.157 17.1739 126.858 17.1738 123.988V76.0107C17.1738 73.1411 19.5195 70.8408 22.3906 70.5664C48.0005 68.1194 68.3813 47.8428 70.8408 22.3633C71.1166 19.5069 73.4283 17.174 76.3125 17.1738H124.535ZM100.708 49.9541C73.0363 49.9542 50.6045 72.2977 50.6045 99.8594C50.6045 127.421 73.0363 149.765 100.708 149.765C128.38 149.765 150.812 127.421 150.812 99.8594C150.812 72.2977 128.38 49.9541 100.708 49.9541Z" fill="{{DETAIL}}"/>
</svg>
