<svg width="502" height="200" viewBox="0 0 502 200" fill="none" xmlns="http://www.w3.org/2000/svg">
<path d="M501.389 26.9308V173.596C501.389 196.864 501.127 197.91 498.247 197.91H462.638C459.758 197.91 459.234 196.864 459.234 173.596V26.9308C459.234 3.66294 459.758 2.61719 462.638 2.61719H498.247C501.127 2.61719 501.389 3.66294 501.389 26.9308Z" fill="{{FILL}}"/>
<path d="M442.394 164.966V112.678C442.394 77.1258 419.35 64.3135 387.15 64.3135C341.587 64.3135 328.497 93.0692 328.497 106.925C328.497 108.756 328.497 109.28 330.589 109.28H365.936C367.51 109.28 367.247 106.925 367.772 104.051C369.345 94.3802 374.841 88.8892 385.052 88.8892C395.525 88.8892 401.546 94.118 401.546 107.187V112.678C401.546 119.737 398.404 117.907 380.862 118.694C347.088 120 324.307 132.55 324.307 161.83C324.307 187.974 343.422 199.999 364.63 199.999C377.72 199.999 385.314 196.077 391.597 190.323C397.36 184.838 398.666 180.128 400.764 180.128C402.332 180.128 402.857 181.434 403.643 185.357L404.692 190.323C405.998 196.863 406.26 197.907 408.096 197.907H447.371C448.152 197.907 448.939 197.383 448.939 196.339C448.939 193.984 442.394 176.992 442.394 164.966ZM401.546 150.585C401.546 166.009 392.121 175.423 381.911 175.423C372.749 175.423 366.461 169.67 366.461 158.169C366.461 146.405 373.792 140.128 386.101 139.346L395.787 138.822C400.24 138.56 401.546 140.128 401.546 145.356V150.585Z" fill="{{FILL}}"/>
<path d="M253.047 98.5617C253.047 93.5941 250.953 93.0712 241.265 93.0712H236.552C234.719 93.0712 234.457 91.7643 234.457 81.045V79.2152C234.457 68.4965 234.719 67.4507 236.552 67.4507H242.05C251.738 67.4507 253.047 66.6662 253.047 61.9603V45.7516C253.047 15.1635 268.496 0 298.344 0C310.127 0 318.243 1.82982 319.552 2.61439C320.076 3.13727 320.076 3.92133 320.076 13.5948V16.9938C320.076 26.9285 320.076 29.2812 319.291 29.2812C318.505 29.2812 314.839 26.9285 308.556 26.9285C300.177 26.9285 294.94 31.1115 294.94 45.7521V61.9608C294.94 66.6667 296.773 67.4512 308.556 67.4512H320.338C322.694 67.4512 322.694 68.497 322.694 79.2157V81.0456C322.694 91.7648 322.433 93.0717 320.6 93.0717H308.556C296.773 93.0717 294.94 93.5946 294.94 98.5622V173.594C294.94 196.862 294.155 197.908 292.06 197.908H255.666C253.571 197.908 253.047 196.862 253.047 173.594V98.5617Z" fill="{{FILL}}"/>
<path d="M189.249 65.5834C159.198 62.7042 135.285 38.8534 132.396 8.88432C132.072 5.52186 129.362 2.77637 125.979 2.77637H69.3931C66.005 2.77637 63.2955 5.52186 62.9716 8.88432C60.0872 38.8534 36.1696 62.7042 6.11824 65.5834C2.75064 65.9073 0 68.6117 0 71.9896V128.426C0 131.799 2.75064 134.504 6.11824 134.827C36.1696 137.707 60.0872 161.557 62.9716 191.532C63.2955 194.889 66.005 197.634 69.3931 197.634H125.979C129.362 197.634 132.072 194.889 132.396 191.532C135.285 161.557 159.198 137.707 189.249 134.827C192.616 134.504 195.372 131.799 195.372 128.426V71.9896C195.372 68.6117 192.616 65.9073 189.249 65.5834ZM97.6861 158.91C65.2132 158.91 38.8894 132.627 38.8894 100.205C38.8894 67.7839 65.2132 41.5012 97.6861 41.5012C130.159 41.5012 156.478 67.7839 156.478 100.205C156.478 132.627 130.154 158.91 97.6861 158.91Z" fill="{{FILL}}"/>
</svg>
