<svg width="562" height="175" viewBox="0 0 562 175" fill="none" xmlns="http://www.w3.org/2000/svg">
<rect width="125.5" height="125.5" fill="white"/>
<path d="M77.9139 12.0312C79.7162 12.0312 81.1606 13.4895 81.3329 15.2744C82.8697 31.1953 95.6049 43.8655 111.607 45.3945C113.401 45.5659 114.867 47.0029 114.867 48.7959V78.7744C114.867 80.5675 113.401 82.0053 111.607 82.1768C95.605 83.7058 82.8697 96.376 81.3329 112.297C81.1604 114.082 79.7161 115.539 77.9139 115.539H47.7821C45.98 115.539 44.5357 114.082 44.3632 112.297C42.8263 96.376 30.0911 83.7058 14.0887 82.1768C12.2947 82.0053 10.829 80.5675 10.829 78.7744V48.7959C10.8291 47.0029 12.2948 45.5659 14.0887 45.3945C30.0911 43.8655 42.8263 31.1953 44.3632 15.2744C44.5355 13.4895 45.9798 12.0312 47.7821 12.0312H77.9139ZM63.0262 32.5166C45.7357 32.5168 31.7187 46.4774 31.7186 63.6992C31.7186 80.9211 45.7357 94.8826 63.0262 94.8828C80.317 94.8828 94.3339 80.9212 94.3339 63.6992C94.3337 46.4773 80.3169 32.5166 63.0262 32.5166Z" fill="black"/>
<rect width="510.73" height="50" transform="translate(0 125)" fill="#ADFF00"/>
<path d="M490.68 143.8C490.88 143.8 490.996 143.866 491.03 144C491.063 144.1 491.096 144.333 491.13 144.7L491.23 146.6C491.263 147.1 491.296 147.533 491.33 147.9C491.396 148.233 491.48 148.4 491.58 148.4C491.713 148.4 491.88 148.216 492.08 147.85C492.28 147.483 492.563 147.033 492.93 146.5C493.33 145.933 493.863 145.383 494.53 144.85C495.363 144.183 496.23 143.766 497.13 143.6C498.063 143.4 499.096 143.3 500.23 143.3C500.396 143.3 500.513 143.35 500.58 143.45C500.646 143.55 500.68 143.8 500.68 144.2C500.713 144.6 500.73 145.266 500.73 146.2V146.35C500.73 147.583 500.696 148.416 500.63 148.85C500.596 149.283 500.546 149.5 500.48 149.5C500.38 149.5 500.063 149.433 499.53 149.3C498.996 149.166 498.346 149.1 497.58 149.1C496.613 149.1 495.763 149.25 495.03 149.55C494.33 149.816 493.713 150.2 493.18 150.7C492.58 151.333 492.13 152.066 491.83 152.9C491.563 153.733 491.43 154.8 491.43 156.1V164C491.43 165.466 491.413 166.533 491.38 167.2C491.346 167.866 491.28 168.283 491.18 168.45C491.113 168.583 490.98 168.65 490.78 168.65H485.68C485.48 168.65 485.33 168.583 485.23 168.45C485.13 168.283 485.063 167.866 485.03 167.2C484.996 166.533 484.98 165.466 484.98 164V148.3C484.98 147.933 484.963 147.466 484.93 146.9C484.896 146.3 484.863 145.75 484.83 145.25C484.796 144.716 484.78 144.383 484.78 144.25C484.78 143.95 484.913 143.8 485.18 143.8H490.68Z" fill="black"/>
<path d="M467.686 143.25C470.12 143.25 472.303 143.767 474.236 144.8C476.17 145.833 477.703 147.317 478.836 149.25C479.97 151.183 480.536 153.5 480.536 156.2C480.536 158.933 479.97 161.283 478.836 163.25C477.703 165.183 476.17 166.667 474.236 167.7C472.303 168.733 470.12 169.25 467.686 169.25C465.286 169.25 463.12 168.733 461.186 167.7C459.253 166.667 457.72 165.183 456.586 163.25C455.453 161.283 454.886 158.933 454.886 156.2C454.886 153.5 455.453 151.183 456.586 149.25C457.72 147.317 459.253 145.833 461.186 144.8C463.12 143.767 465.286 143.25 467.686 143.25ZM467.686 164.95C469.586 164.95 471.053 164.233 472.086 162.8C473.12 161.367 473.636 159.167 473.636 156.2C473.636 153.267 473.12 151.1 472.086 149.7C471.053 148.267 469.586 147.55 467.686 147.55C465.853 147.55 464.403 148.267 463.336 149.7C462.303 151.1 461.786 153.267 461.786 156.2C461.786 159.167 462.303 161.367 463.336 162.8C464.403 164.233 465.853 164.95 467.686 164.95Z" fill="black"/>
<path d="M446.908 141.85V142.8C446.908 143.233 447.058 143.517 447.358 143.65C447.658 143.75 448.375 143.8 449.508 143.8H451.558C451.825 143.8 451.975 143.9 452.008 144.1C452.075 144.267 452.108 144.783 452.108 145.65V146.05C452.108 146.883 452.075 147.4 452.008 147.6C451.975 147.8 451.825 147.9 451.558 147.9H449.508C448.375 147.9 447.658 147.967 447.358 148.1C447.058 148.2 446.908 148.467 446.908 148.9V161.65C446.908 162.783 447.158 163.55 447.658 163.95C448.158 164.35 448.825 164.55 449.658 164.55C450.192 164.55 450.642 164.533 451.008 164.5C451.375 164.433 451.608 164.4 451.708 164.4C451.808 164.4 451.875 164.5 451.908 164.7C451.942 164.867 451.958 165.317 451.958 166.05V166.3C451.958 167.067 451.942 167.55 451.908 167.75C451.875 167.917 451.825 168.05 451.758 168.15C451.692 168.217 451.275 168.383 450.508 168.65C449.775 168.95 448.725 169.1 447.358 169.1C445.158 169.1 443.492 168.567 442.358 167.5C441.225 166.433 440.658 164.833 440.658 162.7V148.9C440.658 148.467 440.508 148.2 440.208 148.1C439.942 147.967 439.325 147.9 438.358 147.9H437.408C437.208 147.9 437.075 147.8 437.008 147.6C436.975 147.4 436.958 146.883 436.958 146.05V145.65C436.958 144.783 436.975 144.267 437.008 144.1C437.075 143.9 437.208 143.8 437.408 143.8H438.508C439.508 143.8 440.125 143.75 440.358 143.65C440.592 143.517 440.708 143.233 440.708 142.8V141.85C440.708 140.683 440.708 139.85 440.708 139.35C440.742 138.85 440.792 138.55 440.858 138.45C440.925 138.317 441.025 138.25 441.158 138.25H446.558C446.692 138.25 446.775 138.317 446.808 138.45C446.875 138.55 446.908 138.85 446.908 139.35C446.908 139.85 446.908 140.683 446.908 141.85Z" fill="black"/>
<path d="M427.577 159.45V158.4C427.577 157.833 427.494 157.45 427.327 157.25C427.194 157.017 426.927 156.917 426.527 156.95L423.977 157.05C422.444 157.083 421.26 157.483 420.427 158.25C419.627 159.017 419.227 160.017 419.227 161.25C419.227 162.517 419.544 163.483 420.177 164.15C420.844 164.817 421.744 165.15 422.877 165.15C423.677 165.15 424.427 164.917 425.127 164.45C425.86 163.983 426.444 163.317 426.877 162.45C427.344 161.583 427.577 160.583 427.577 159.45ZM427.577 152.55V151.3C427.577 149.8 427.227 148.733 426.527 148.1C425.827 147.467 424.894 147.15 423.727 147.15C422.494 147.15 421.56 147.45 420.927 148.05C420.294 148.617 419.877 149.45 419.677 150.55C419.644 150.817 419.61 151.05 419.577 151.25C419.577 151.417 419.51 151.5 419.377 151.5H413.977C413.777 151.5 413.66 151.467 413.627 151.4C413.594 151.333 413.577 151.217 413.577 151.05C413.577 150.383 413.744 149.617 414.077 148.75C414.41 147.85 414.977 146.983 415.777 146.15C416.577 145.317 417.644 144.633 418.977 144.1C420.344 143.533 422.01 143.25 423.977 143.25C425.877 143.25 427.56 143.533 429.027 144.1C430.527 144.667 431.694 145.583 432.527 146.85C433.394 148.117 433.827 149.783 433.827 151.85V162.35C433.827 163.117 433.927 163.95 434.127 164.85C434.36 165.717 434.577 166.483 434.777 167.15C435.01 167.783 435.127 168.2 435.127 168.4C435.127 168.567 435.027 168.65 434.827 168.65H428.927C428.76 168.65 428.644 168.567 428.577 168.4C428.51 168.2 428.41 167.783 428.277 167.15L428.027 166.15C427.927 165.783 427.844 165.533 427.777 165.4C427.71 165.233 427.61 165.15 427.477 165.15C427.244 165.15 427.027 165.367 426.827 165.8C426.627 166.2 426.244 166.65 425.677 167.15C425.077 167.717 424.36 168.183 423.527 168.55C422.694 168.883 421.677 169.05 420.477 169.05C419.144 169.05 417.894 168.8 416.727 168.3C415.56 167.767 414.61 166.967 413.877 165.9C413.144 164.8 412.777 163.417 412.777 161.75C412.777 159.95 413.21 158.467 414.077 157.3C414.944 156.133 416.16 155.25 417.727 154.65C419.294 154.05 421.127 153.717 423.227 153.65C424.46 153.583 425.377 153.567 425.977 153.6C426.61 153.6 427.027 153.533 427.227 153.4C427.46 153.267 427.577 152.983 427.577 152.55Z" fill="black"/>
<path d="M401.127 143.8C401.327 143.8 401.444 143.866 401.477 144C401.51 144.1 401.544 144.333 401.577 144.7L401.677 146.6C401.71 147.1 401.744 147.533 401.777 147.9C401.844 148.233 401.927 148.4 402.027 148.4C402.16 148.4 402.327 148.216 402.527 147.85C402.727 147.483 403.01 147.033 403.377 146.5C403.777 145.933 404.31 145.383 404.977 144.85C405.81 144.183 406.677 143.766 407.577 143.6C408.51 143.4 409.544 143.3 410.677 143.3C410.844 143.3 410.96 143.35 411.027 143.45C411.094 143.55 411.127 143.8 411.127 144.2C411.16 144.6 411.177 145.266 411.177 146.2V146.35C411.177 147.583 411.144 148.416 411.077 148.85C411.044 149.283 410.994 149.5 410.927 149.5C410.827 149.5 410.51 149.433 409.977 149.3C409.444 149.166 408.794 149.1 408.027 149.1C407.06 149.1 406.21 149.25 405.477 149.55C404.777 149.816 404.16 150.2 403.627 150.7C403.027 151.333 402.577 152.066 402.277 152.9C402.01 153.733 401.877 154.8 401.877 156.1V164C401.877 165.466 401.86 166.533 401.827 167.2C401.794 167.866 401.727 168.283 401.627 168.45C401.56 168.583 401.427 168.65 401.227 168.65H396.127C395.927 168.65 395.777 168.583 395.677 168.45C395.577 168.283 395.51 167.866 395.477 167.2C395.444 166.533 395.427 165.466 395.427 164V148.3C395.427 147.933 395.41 147.466 395.377 146.9C395.344 146.3 395.31 145.75 395.277 145.25C395.244 144.716 395.227 144.383 395.227 144.25C395.227 143.95 395.36 143.8 395.627 143.8H401.127Z" fill="black"/>
<path d="M383.181 153.5C383.814 153.5 384.214 153.433 384.381 153.3C384.547 153.133 384.631 152.933 384.631 152.7C384.631 151.7 384.431 150.8 384.031 150C383.631 149.2 383.064 148.55 382.331 148.05C381.598 147.55 380.731 147.3 379.731 147.3C378.598 147.3 377.614 147.567 376.781 148.1C375.981 148.6 375.347 149.25 374.881 150.05C374.447 150.85 374.231 151.717 374.231 152.65C374.231 152.917 374.314 153.133 374.481 153.3C374.681 153.433 375.048 153.5 375.581 153.5H383.181ZM374.131 158.35C374.131 159.75 374.414 160.95 374.981 161.95C375.548 162.95 376.298 163.717 377.231 164.25C378.164 164.783 379.198 165.05 380.331 165.05C381.298 165.05 382.114 164.85 382.781 164.45C383.447 164.05 384.014 163.517 384.481 162.85C384.914 162.183 385.164 161.683 385.231 161.35C385.331 160.983 385.448 160.8 385.581 160.8H390.481C390.714 160.8 390.847 160.833 390.881 160.9C390.947 160.933 390.981 161 390.981 161.1C390.981 161.267 390.881 161.617 390.681 162.15C390.514 162.683 390.247 163.283 389.881 163.95C389.547 164.583 389.097 165.183 388.531 165.75C387.531 166.883 386.331 167.75 384.931 168.35C383.564 168.95 381.964 169.25 380.131 169.25C377.597 169.25 375.381 168.717 373.481 167.65C371.581 166.583 370.114 165.067 369.081 163.1C368.048 161.1 367.531 158.767 367.531 156.1C367.531 153.333 368.064 151 369.131 149.1C370.231 147.2 371.697 145.75 373.531 144.75C375.364 143.75 377.381 143.25 379.581 143.25C381.348 143.25 382.864 143.5 384.131 144C385.431 144.467 386.514 145.133 387.381 146C388.281 146.867 388.997 147.85 389.531 148.95C390.064 150.05 390.447 151.217 390.681 152.45C390.914 153.683 391.031 154.917 391.031 156.15C391.031 156.517 390.997 156.75 390.931 156.85C390.897 156.95 390.781 157 390.581 157H376.181C375.447 157 374.914 157.083 374.581 157.25C374.281 157.417 374.131 157.783 374.131 158.35Z" fill="black"/>
<path d="M346.708 143.8C346.875 143.8 346.975 143.867 347.008 144C347.042 144.1 347.075 144.333 347.108 144.7L347.208 145.8C347.241 146.133 347.275 146.5 347.308 146.9C347.375 147.267 347.475 147.45 347.608 147.45C347.742 147.45 347.941 147.25 348.208 146.85C348.508 146.417 348.942 145.933 349.508 145.4C350.108 144.833 350.858 144.333 351.758 143.9C352.658 143.467 353.875 143.25 355.408 143.25C357.808 143.25 359.675 143.967 361.008 145.4C362.375 146.8 363.058 148.717 363.058 151.15V164C363.058 165.467 363.042 166.533 363.008 167.2C362.975 167.867 362.892 168.283 362.758 168.45C362.658 168.583 362.492 168.65 362.258 168.65H357.258C357.058 168.65 356.908 168.583 356.808 168.45C356.741 168.283 356.692 167.867 356.658 167.2C356.625 166.533 356.608 165.467 356.608 164V153.05C356.608 151.483 356.292 150.267 355.658 149.4C355.025 148.5 354.025 148.05 352.658 148.05C351.025 148.05 349.741 148.667 348.808 149.9C347.875 151.1 347.408 152.783 347.408 154.95V164C347.408 165.467 347.392 166.533 347.358 167.2C347.325 167.867 347.258 168.283 347.158 168.45C347.092 168.583 346.958 168.65 346.758 168.65H341.658C341.458 168.65 341.308 168.583 341.208 168.45C341.108 168.283 341.042 167.867 341.008 167.2C340.975 166.533 340.958 165.467 340.958 164V148.3C340.958 147.933 340.942 147.467 340.908 146.9C340.875 146.3 340.841 145.75 340.808 145.25C340.775 144.717 340.758 144.383 340.758 144.25C340.758 143.95 340.892 143.8 341.158 143.8H346.708Z" fill="black"/>
<path d="M328.712 153.5C329.345 153.5 329.745 153.433 329.912 153.3C330.079 153.133 330.162 152.933 330.162 152.7C330.162 151.7 329.962 150.8 329.562 150C329.162 149.2 328.595 148.55 327.862 148.05C327.129 147.55 326.262 147.3 325.262 147.3C324.129 147.3 323.145 147.567 322.312 148.1C321.512 148.6 320.879 149.25 320.412 150.05C319.979 150.85 319.762 151.717 319.762 152.65C319.762 152.917 319.845 153.133 320.012 153.3C320.212 153.433 320.579 153.5 321.112 153.5H328.712ZM319.662 158.35C319.662 159.75 319.945 160.95 320.512 161.95C321.079 162.95 321.829 163.717 322.762 164.25C323.695 164.783 324.729 165.05 325.862 165.05C326.829 165.05 327.645 164.85 328.312 164.45C328.979 164.05 329.545 163.517 330.012 162.85C330.445 162.183 330.695 161.683 330.762 161.35C330.862 160.983 330.979 160.8 331.112 160.8H336.012C336.245 160.8 336.379 160.833 336.412 160.9C336.479 160.933 336.512 161 336.512 161.1C336.512 161.267 336.412 161.617 336.212 162.15C336.045 162.683 335.779 163.283 335.412 163.95C335.079 164.583 334.629 165.183 334.062 165.75C333.062 166.883 331.862 167.75 330.462 168.35C329.095 168.95 327.495 169.25 325.662 169.25C323.129 169.25 320.912 168.717 319.012 167.65C317.112 166.583 315.645 165.067 314.612 163.1C313.579 161.1 313.062 158.767 313.062 156.1C313.062 153.333 313.595 151 314.662 149.1C315.762 147.2 317.229 145.75 319.062 144.75C320.895 143.75 322.912 143.25 325.112 143.25C326.879 143.25 328.395 143.5 329.662 144C330.962 144.467 332.045 145.133 332.912 146C333.812 146.867 334.529 147.85 335.062 148.95C335.595 150.05 335.979 151.217 336.212 152.45C336.445 153.683 336.562 154.917 336.562 156.15C336.562 156.517 336.529 156.75 336.462 156.85C336.429 156.95 336.312 157 336.112 157H321.712C320.979 157 320.445 157.083 320.112 157.25C319.812 157.417 319.662 157.783 319.662 158.35Z" fill="black"/>
<path d="M301.964 161.4V155.7C301.964 155.1 301.797 154.717 301.464 154.55C301.164 154.383 300.497 154.3 299.464 154.3H296.014C295.847 154.3 295.697 154.267 295.564 154.2C295.464 154.1 295.397 153.883 295.364 153.55C295.33 153.183 295.314 152.617 295.314 151.85V151.6C295.314 150.767 295.33 150.183 295.364 149.85C295.397 149.517 295.464 149.3 295.564 149.2C295.697 149.1 295.847 149.05 296.014 149.05H307.914C308.08 149.05 308.197 149.15 308.264 149.35C308.364 149.55 308.43 150.033 308.464 150.8C308.53 151.567 308.564 152.817 308.564 154.55V163.5C308.564 163.867 308.23 164.367 307.564 165C306.897 165.633 305.914 166.267 304.614 166.9C303.347 167.533 301.814 168.067 300.014 168.5C298.247 168.933 296.23 169.15 293.964 169.15C289.83 169.15 286.28 168.367 283.314 166.8C280.38 165.233 278.13 163.017 276.564 160.15C275.03 157.25 274.264 153.833 274.264 149.9C274.264 146.1 275.014 142.767 276.514 139.9C278.047 137.033 280.164 134.8 282.864 133.2C285.597 131.567 288.73 130.75 292.264 130.75C295.197 130.75 297.614 131.167 299.514 132C301.447 132.8 303.03 133.8 304.264 135C305.23 135.933 305.997 136.917 306.564 137.95C307.13 138.95 307.53 139.85 307.764 140.65C308.03 141.417 308.164 141.9 308.164 142.1C308.164 142.2 308.13 142.283 308.064 142.35C308.03 142.417 307.914 142.45 307.714 142.45H300.664C300.497 142.45 300.397 142.3 300.364 142C300.33 141.667 300.097 141.133 299.664 140.4C299.03 139.133 298.114 138.083 296.914 137.25C295.714 136.417 294.13 136 292.164 136C290.764 136 289.447 136.283 288.214 136.85C286.98 137.383 285.88 138.217 284.914 139.35C283.98 140.45 283.23 141.883 282.664 143.65C282.13 145.383 281.864 147.467 281.864 149.9C281.864 153.067 282.397 155.683 283.464 157.75C284.564 159.817 286.08 161.367 288.014 162.4C289.947 163.4 292.18 163.9 294.714 163.9C296.18 163.9 297.464 163.767 298.564 163.5C299.664 163.233 300.497 162.9 301.064 162.5C301.664 162.1 301.964 161.733 301.964 161.4Z" fill="black"/>
<path d="M254.082 141.85V142.8C254.082 143.233 254.232 143.517 254.532 143.65C254.832 143.75 255.549 143.8 256.682 143.8H258.732C258.999 143.8 259.149 143.9 259.182 144.1C259.249 144.267 259.282 144.783 259.282 145.65V146.05C259.282 146.883 259.249 147.4 259.182 147.6C259.149 147.8 258.999 147.9 258.732 147.9H256.682C255.549 147.9 254.832 147.967 254.532 148.1C254.232 148.2 254.082 148.467 254.082 148.9V161.65C254.082 162.783 254.332 163.55 254.832 163.95C255.332 164.35 255.999 164.55 256.832 164.55C257.365 164.55 257.815 164.533 258.182 164.5C258.549 164.433 258.782 164.4 258.882 164.4C258.982 164.4 259.049 164.5 259.082 164.7C259.115 164.867 259.132 165.317 259.132 166.05V166.3C259.132 167.067 259.115 167.55 259.082 167.75C259.049 167.917 258.999 168.05 258.932 168.15C258.865 168.217 258.449 168.383 257.682 168.65C256.949 168.95 255.899 169.1 254.532 169.1C252.332 169.1 250.665 168.567 249.532 167.5C248.399 166.433 247.832 164.833 247.832 162.7V148.9C247.832 148.467 247.682 148.2 247.382 148.1C247.115 147.967 246.499 147.9 245.532 147.9H244.582C244.382 147.9 244.249 147.8 244.182 147.6C244.149 147.4 244.132 146.883 244.132 146.05V145.65C244.132 144.783 244.149 144.267 244.182 144.1C244.249 143.9 244.382 143.8 244.582 143.8H245.682C246.682 143.8 247.299 143.75 247.532 143.65C247.765 143.517 247.882 143.233 247.882 142.8V141.85C247.882 140.683 247.882 139.85 247.882 139.35C247.915 138.85 247.965 138.55 248.032 138.45C248.099 138.317 248.199 138.25 248.332 138.25H253.732C253.865 138.25 253.949 138.317 253.982 138.45C254.049 138.55 254.082 138.85 254.082 139.35C254.082 139.85 254.082 140.683 254.082 141.85Z" fill="black"/>
<path d="M231.553 143.25C232.886 143.25 234.019 143.367 234.953 143.6C235.919 143.8 236.753 144.1 237.453 144.5C238.153 144.867 238.736 145.283 239.203 145.75C239.736 146.25 240.186 146.817 240.553 147.45C240.919 148.05 241.186 148.633 241.353 149.2C241.553 149.733 241.653 150.133 241.653 150.4C241.653 150.567 241.453 150.65 241.053 150.65H236.103C235.969 150.65 235.853 150.45 235.753 150.05C235.686 149.617 235.436 149.133 235.003 148.6C234.636 148.1 234.169 147.717 233.603 147.45C233.036 147.15 232.353 147 231.553 147C230.586 147 229.769 147.217 229.103 147.65C228.436 148.083 228.103 148.75 228.103 149.65C228.103 150.45 228.403 151.05 229.003 151.45C229.603 151.85 230.369 152.167 231.303 152.4C232.236 152.633 233.236 152.933 234.303 153.3C235.536 153.667 236.753 154.133 237.953 154.7C239.153 155.267 240.136 156.05 240.903 157.05C241.703 158.017 242.103 159.333 242.103 161C242.103 163.667 241.219 165.7 239.453 167.1C237.686 168.5 235.303 169.2 232.303 169.2C230.136 169.2 228.353 168.9 226.953 168.3C225.586 167.7 224.469 166.967 223.603 166.1C222.769 165.233 222.136 164.35 221.703 163.45C221.303 162.517 221.103 161.883 221.103 161.55C221.103 161.45 221.136 161.383 221.203 161.35C221.303 161.283 221.469 161.25 221.703 161.25H226.953C227.119 161.25 227.236 161.433 227.303 161.8C227.403 162.133 227.619 162.567 227.953 163.1C228.386 163.767 228.953 164.333 229.653 164.8C230.386 165.233 231.303 165.45 232.403 165.45C233.603 165.45 234.536 165.167 235.203 164.6C235.869 164 236.203 163.183 236.203 162.15C236.203 161.383 235.986 160.783 235.553 160.35C235.153 159.883 234.603 159.517 233.903 159.25C233.236 158.983 232.503 158.75 231.703 158.55C230.936 158.35 230.186 158.117 229.453 157.85C228.353 157.45 227.253 156.983 226.153 156.45C225.086 155.883 224.186 155.133 223.453 154.2C222.719 153.267 222.353 152.05 222.353 150.55C222.353 148.983 222.753 147.667 223.553 146.6C224.386 145.5 225.486 144.667 226.853 144.1C228.253 143.533 229.819 143.25 231.553 143.25Z" fill="black"/>
<path d="M211.521 168.65C211.387 168.65 211.304 168.583 211.271 168.45C211.237 168.316 211.204 168.083 211.171 167.75L211.071 166.65C211.004 166.316 210.954 165.966 210.921 165.6C210.887 165.2 210.787 165 210.621 165C210.487 165 210.271 165.2 209.971 165.6C209.704 166 209.287 166.483 208.721 167.05C208.154 167.616 207.437 168.116 206.571 168.55C205.704 168.983 204.504 169.2 202.971 169.2C200.637 169.2 198.804 168.5 197.471 167.1C196.171 165.666 195.521 163.733 195.521 161.3V148.45C195.521 146.983 195.537 145.916 195.571 145.25C195.604 144.583 195.671 144.183 195.771 144.05C195.904 143.883 196.087 143.8 196.321 143.8H201.271C201.504 143.8 201.654 143.883 201.721 144.05C201.821 144.183 201.887 144.583 201.921 145.25C201.954 145.916 201.971 146.983 201.971 148.45V159.35C201.971 160.916 202.271 162.15 202.871 163.05C203.471 163.95 204.454 164.4 205.821 164.4C207.354 164.4 208.571 163.8 209.471 162.6C210.371 161.366 210.821 159.666 210.821 157.5V148.45C210.821 146.983 210.837 145.916 210.871 145.25C210.904 144.583 210.954 144.183 211.021 144.05C211.121 143.883 211.254 143.8 211.421 143.8H216.571C216.771 143.8 216.921 143.883 217.021 144.05C217.121 144.183 217.171 144.583 217.171 145.25C217.204 145.916 217.221 146.983 217.221 148.45V163.65C217.221 163.983 217.237 164.5 217.271 165.2C217.337 165.866 217.387 166.5 217.421 167.1C217.487 167.7 217.521 168.083 217.521 168.25C217.521 168.516 217.387 168.65 217.121 168.65H211.521Z" fill="black"/>
<path d="M170.311 168.65H158.411C158.244 168.65 158.111 168.566 158.011 168.4C157.911 168.2 157.844 167.716 157.811 166.95C157.777 166.183 157.761 164.916 157.761 163.15V136.8C157.761 135.033 157.777 133.766 157.811 133C157.844 132.233 157.911 131.766 158.011 131.6C158.111 131.4 158.244 131.3 158.411 131.3H170.311C174.611 131.3 178.277 132.083 181.311 133.65C184.377 135.183 186.711 137.35 188.311 140.15C189.911 142.916 190.711 146.15 190.711 149.85C190.711 153.483 189.911 156.716 188.311 159.55C186.711 162.383 184.377 164.616 181.311 166.25C178.277 167.85 174.611 168.65 170.311 168.65ZM164.611 138.45V161.5C164.611 162.266 164.777 162.766 165.111 163C165.444 163.233 166.177 163.35 167.311 163.35H170.311C172.944 163.35 175.211 162.833 177.111 161.8C179.011 160.733 180.477 159.2 181.511 157.2C182.544 155.2 183.061 152.783 183.061 149.95C183.061 146.983 182.544 144.516 181.511 142.55C180.477 140.55 179.011 139.066 177.111 138.1C175.211 137.1 172.944 136.6 170.311 136.6H167.311C166.177 136.6 165.444 136.716 165.111 136.95C164.777 137.183 164.611 137.683 164.611 138.45Z" fill="black"/>
<path d="M123.83 145.8C123.83 146.266 123.863 146.666 123.93 147C123.996 147.3 124.08 147.45 124.18 147.45C124.38 147.45 124.596 147.25 124.83 146.85C125.063 146.416 125.48 145.933 126.08 145.4C126.68 144.866 127.43 144.383 128.33 143.95C129.23 143.483 130.43 143.25 131.93 143.25C134.33 143.25 136.196 143.966 137.53 145.4C138.896 146.8 139.58 148.716 139.58 151.15V164C139.58 165.466 139.563 166.533 139.53 167.2C139.496 167.866 139.413 168.283 139.28 168.45C139.18 168.583 139.013 168.65 138.78 168.65H133.78C133.58 168.65 133.43 168.583 133.33 168.45C133.263 168.283 133.213 167.866 133.18 167.2C133.146 166.533 133.13 165.466 133.13 164V153.05C133.13 151.483 132.813 150.266 132.18 149.4C131.546 148.5 130.546 148.05 129.18 148.05C127.546 148.05 126.263 148.666 125.33 149.9C124.396 151.1 123.93 152.783 123.93 154.95V164C123.93 165.466 123.913 166.533 123.88 167.2C123.846 167.867 123.78 168.283 123.68 168.45C123.613 168.583 123.48 168.65 123.28 168.65H118.18C117.98 168.65 117.83 168.583 117.73 168.45C117.63 168.283 117.563 167.866 117.53 167.2C117.496 166.533 117.48 165.466 117.48 164V135.95C117.48 134.416 117.496 133.333 117.53 132.7C117.563 132.033 117.613 131.633 117.68 131.5C117.746 131.366 117.846 131.3 117.98 131.3H123.33C123.496 131.3 123.613 131.366 123.68 131.5C123.746 131.633 123.78 132.033 123.78 132.7C123.813 133.333 123.83 134.416 123.83 135.95V145.8Z" fill="black"/>
<path d="M102.584 164.95C103.484 164.95 104.267 164.767 104.934 164.4C105.634 164.033 106.217 163.5 106.684 162.8C107.15 162.2 107.417 161.717 107.484 161.35C107.55 160.983 107.65 160.8 107.784 160.8H112.684C112.917 160.8 113.067 160.833 113.134 160.9C113.2 160.933 113.234 161 113.234 161.1C113.234 161.267 113.134 161.617 112.934 162.15C112.734 162.65 112.45 163.233 112.084 163.9C111.717 164.533 111.284 165.133 110.784 165.7C109.717 166.833 108.484 167.717 107.084 168.35C105.684 168.95 104.067 169.25 102.234 169.25C99.8336 169.25 97.6836 168.717 95.7836 167.65C93.8836 166.55 92.367 165.017 91.2336 163.05C90.1336 161.083 89.5836 158.767 89.5836 156.1C89.5836 153.467 90.1336 151.2 91.2336 149.3C92.367 147.367 93.8836 145.883 95.7836 144.85C97.7169 143.783 99.8503 143.25 102.184 143.25C104.217 143.25 105.884 143.533 107.184 144.1C108.517 144.667 109.634 145.433 110.534 146.4C111.134 147 111.617 147.667 111.984 148.4C112.384 149.133 112.684 149.817 112.884 150.45C113.084 151.05 113.184 151.483 113.184 151.75C113.184 151.917 113.034 152 112.734 152H106.934C106.734 152 106.6 151.717 106.534 151.15C106.467 150.583 106.167 149.967 105.634 149.3C105.234 148.733 104.767 148.3 104.234 148C103.7 147.7 103.017 147.55 102.184 147.55C101.184 147.55 100.25 147.833 99.3836 148.4C98.5169 148.967 97.8169 149.883 97.2836 151.15C96.7503 152.383 96.4836 154.033 96.4836 156.1C96.4836 158.2 96.767 159.9 97.3336 161.2C97.9336 162.5 98.6836 163.45 99.5836 164.05C100.517 164.65 101.517 164.95 102.584 164.95Z" fill="black"/>
<path d="M81.6055 141.85V142.8C81.6055 143.233 81.7555 143.517 82.0555 143.65C82.3555 143.75 83.0721 143.8 84.2055 143.8H86.2555C86.5221 143.8 86.6721 143.9 86.7055 144.1C86.7721 144.267 86.8055 144.783 86.8055 145.65V146.05C86.8055 146.883 86.7721 147.4 86.7055 147.6C86.6721 147.8 86.5221 147.9 86.2555 147.9H84.2055C83.0721 147.9 82.3555 147.967 82.0555 148.1C81.7555 148.2 81.6055 148.467 81.6055 148.9V161.65C81.6055 162.783 81.8555 163.55 82.3555 163.95C82.8555 164.35 83.5221 164.55 84.3555 164.55C84.8888 164.55 85.3388 164.533 85.7055 164.5C86.0721 164.433 86.3055 164.4 86.4055 164.4C86.5055 164.4 86.5721 164.5 86.6055 164.7C86.6388 164.867 86.6555 165.317 86.6555 166.05V166.3C86.6555 167.067 86.6388 167.55 86.6055 167.75C86.5721 167.917 86.5221 168.05 86.4555 168.15C86.3888 168.217 85.9721 168.383 85.2055 168.65C84.4721 168.95 83.4221 169.1 82.0555 169.1C79.8555 169.1 78.1888 168.567 77.0555 167.5C75.9221 166.433 75.3555 164.833 75.3555 162.7V148.9C75.3555 148.467 75.2055 148.2 74.9055 148.1C74.6388 147.967 74.0221 147.9 73.0555 147.9H72.1055C71.9055 147.9 71.7721 147.8 71.7055 147.6C71.6721 147.4 71.6555 146.883 71.6555 146.05V145.65C71.6555 144.783 71.6721 144.267 71.7055 144.1C71.7721 143.9 71.9055 143.8 72.1055 143.8H73.2055C74.2055 143.8 74.8221 143.75 75.0555 143.65C75.2888 143.517 75.4055 143.233 75.4055 142.8V141.85C75.4055 140.683 75.4055 139.85 75.4055 139.35C75.4388 138.85 75.4888 138.55 75.5555 138.45C75.6221 138.317 75.7221 138.25 75.8555 138.25H81.2555C81.3888 138.25 81.4721 138.317 81.5055 138.45C81.5721 138.55 81.6055 138.85 81.6055 139.35C81.6055 139.85 81.6055 140.683 81.6055 141.85Z" fill="black"/>
<path d="M68.1043 164C68.1043 165.467 68.0876 166.533 68.0543 167.2C68.021 167.867 67.9543 168.283 67.8543 168.45C67.7876 168.583 67.671 168.65 67.5043 168.65H62.2043C62.071 168.65 61.9543 168.583 61.8543 168.45C61.7876 168.283 61.7376 167.867 61.7043 167.2C61.671 166.533 61.6543 165.467 61.6543 164V148.45C61.6543 146.95 61.671 145.883 61.7043 145.25C61.7376 144.583 61.7876 144.183 61.8543 144.05C61.9543 143.883 62.071 143.8 62.2043 143.8H67.5043C67.671 143.8 67.7876 143.883 67.8543 144.05C67.9543 144.183 68.021 144.583 68.0543 145.25C68.0876 145.883 68.1043 146.95 68.1043 148.45V164ZM67.9043 138.85H61.8543C61.721 138.85 61.621 138.817 61.5543 138.75C61.4876 138.65 61.4376 138.417 61.4043 138.05C61.4043 137.65 61.4043 137.05 61.4043 136.25V135.7C61.4043 134.867 61.4043 134.283 61.4043 133.95C61.4376 133.583 61.4876 133.367 61.5543 133.3C61.621 133.2 61.721 133.15 61.8543 133.15H67.9043C68.0376 133.15 68.1376 133.2 68.2043 133.3C68.271 133.367 68.3043 133.583 68.3043 133.95C68.3376 134.283 68.3543 134.867 68.3543 135.7V136.25C68.3543 137.05 68.3376 137.65 68.3043 138.05C68.3043 138.417 68.271 138.65 68.2043 138.75C68.1376 138.817 68.0376 138.85 67.9043 138.85Z" fill="black"/>
<path d="M56.152 135.95V164C56.152 165.466 56.1353 166.533 56.102 167.2C56.0686 167.866 56.0186 168.283 55.952 168.45C55.8853 168.583 55.752 168.65 55.552 168.65H50.402C50.202 168.65 50.052 168.583 49.952 168.45C49.8853 168.283 49.8353 167.866 49.802 167.2C49.7686 166.533 49.752 165.466 49.752 164V135.95C49.752 134.483 49.7686 133.416 49.802 132.75C49.8353 132.083 49.8853 131.683 49.952 131.55C50.052 131.383 50.202 131.3 50.402 131.3H55.552C55.752 131.3 55.8853 131.383 55.952 131.55C56.0186 131.683 56.0686 132.083 56.102 132.75C56.1353 133.416 56.152 134.483 56.152 135.95Z" fill="black"/>
<path d="M37.7 161.4V155.7C37.7 155.1 37.5333 154.717 37.2 154.55C36.9 154.383 36.2333 154.3 35.2 154.3H31.75C31.5833 154.3 31.4333 154.267 31.3 154.2C31.2 154.1 31.1333 153.883 31.1 153.55C31.0667 153.183 31.05 152.617 31.05 151.85V151.6C31.05 150.767 31.0667 150.183 31.1 149.85C31.1333 149.517 31.2 149.3 31.3 149.2C31.4333 149.1 31.5833 149.05 31.75 149.05H43.65C43.8167 149.05 43.9333 149.15 44 149.35C44.1 149.55 44.1667 150.033 44.2 150.8C44.2667 151.567 44.3 152.817 44.3 154.55V163.5C44.3 163.867 43.9667 164.367 43.3 165C42.6333 165.633 41.65 166.267 40.35 166.9C39.0833 167.533 37.55 168.067 35.75 168.5C33.9833 168.933 31.9667 169.15 29.7 169.15C25.5667 169.15 22.0167 168.367 19.05 166.8C16.1167 165.233 13.8667 163.017 12.3 160.15C10.7667 157.25 10 153.833 10 149.9C10 146.1 10.75 142.767 12.25 139.9C13.7833 137.033 15.9 134.8 18.6 133.2C21.3333 131.567 24.4667 130.75 28 130.75C30.9333 130.75 33.35 131.167 35.25 132C37.1833 132.8 38.7667 133.8 40 135C40.9667 135.933 41.7333 136.917 42.3 137.95C42.8667 138.95 43.2667 139.85 43.5 140.65C43.7667 141.417 43.9 141.9 43.9 142.1C43.9 142.2 43.8667 142.283 43.8 142.35C43.7667 142.417 43.65 142.45 43.45 142.45H36.4C36.2333 142.45 36.1333 142.3 36.1 142C36.0667 141.667 35.8333 141.133 35.4 140.4C34.7667 139.133 33.85 138.083 32.65 137.25C31.45 136.417 29.8667 136 27.9 136C26.5 136 25.1833 136.283 23.95 136.85C22.7167 137.383 21.6167 138.217 20.65 139.35C19.7167 140.45 18.9667 141.883 18.4 143.65C17.8667 145.383 17.6 147.467 17.6 149.9C17.6 153.067 18.1333 155.683 19.2 157.75C20.3 159.817 21.8167 161.367 23.75 162.4C25.6833 163.4 27.9167 163.9 30.45 163.9C31.9167 163.9 33.2 163.767 34.3 163.5C35.4 163.233 36.2333 162.9 36.8 162.5C37.4 162.1 37.7 161.733 37.7 161.4Z" fill="black"/>
<rect x="511" y="74" width="51" height="51" fill="#ADFF00"/>
<rect x="460" y="23" width="51" height="51" fill="#ADFF00"/>
</svg>
