<svg width="126" height="126" viewBox="0 0 126 126" fill="none" xmlns="http://www.w3.org/2000/svg">
<rect width="125.5" height="125.5" rx="14.5443" fill="white"/>
<path d="M77.914 12.0311C79.7162 12.0311 81.1606 13.4894 81.3329 15.2743C82.8697 31.1952 95.605 43.8654 111.607 45.3944C113.401 45.5658 114.867 47.0027 114.867 48.7958V78.7743C114.867 80.5674 113.401 82.0052 111.607 82.1766C95.605 83.7057 82.8697 96.3759 81.3329 112.297C81.1604 114.081 79.7161 115.539 77.914 115.539H47.7821C45.98 115.539 44.5357 114.081 44.3632 112.297C42.8263 96.3759 30.0911 83.7057 14.0888 82.1766C12.2947 82.0052 10.829 80.5674 10.829 78.7743V48.7958C10.8291 47.0027 12.2948 45.5658 14.0888 45.3944C30.0911 43.8654 42.8263 31.1952 44.3632 15.2743C44.5355 13.4894 45.9799 12.0311 47.7821 12.0311H77.914ZM63.0263 32.5165C45.7357 32.5167 31.7188 46.4773 31.7186 63.6991C31.7186 80.921 45.7357 94.8825 63.0263 94.8827C80.317 94.8827 94.3339 80.9211 94.3339 63.6991C94.3338 46.4772 80.3169 32.5165 63.0263 32.5165Z" fill="black"/>
</svg>
